<svg width="146" height="147" viewBox="0 0 146 147" fill="none" xmlns="http://www.w3.org/2000/svg">
<path opacity="0.15" d="M21.9561 142.142C21.9561 142.69 23.2089 143.233 25.6431 143.739C28.0773 144.246 31.6452 144.706 36.1431 145.094C40.6409 145.482 45.9806 145.789 51.8573 145.999C57.734 146.209 64.0326 146.317 70.3935 146.317C76.7544 146.317 83.053 146.209 88.9297 145.999C94.8064 145.789 100.146 145.482 104.644 145.094C109.142 144.706 112.71 144.246 115.144 143.739C117.578 143.233 118.831 142.69 118.831 142.142C118.831 141.593 117.578 141.05 115.144 140.544C112.71 140.037 109.142 139.577 104.644 139.189C100.146 138.801 94.8064 138.494 88.9297 138.284C83.053 138.074 76.7544 137.966 70.3935 137.966C64.0326 137.966 57.734 138.074 51.8573 138.284C45.9806 138.494 40.6409 138.801 36.1431 139.189C31.6452 139.577 28.0773 140.037 25.6431 140.544C23.2089 141.05 21.9561 141.593 21.9561 142.142Z" fill="black"/>
<path d="M102.796 91.7332C104.366 86.689 109.678 78.3711 116.426 77.2688L143.885 72.592C144.323 72.5654 144.739 72.3879 145.062 72.0896C145.385 71.7912 145.594 71.3904 145.655 70.9552C145.566 70.5479 145.343 70.1821 145.023 69.9159C144.702 69.6496 144.301 69.4981 143.885 69.4854L116.526 64.7752C109.845 63.6395 104.467 55.3884 102.897 50.3442L96.4829 14.6675C96.2682 14.2698 95.9499 13.9375 95.5618 13.706C95.1737 13.4744 94.7301 13.3521 94.2781 13.3521C93.8262 13.3521 93.3826 13.4744 92.9945 13.706C92.6063 13.9375 92.2881 14.2698 92.0734 14.6675L85.7598 50.1772C84.1898 55.2214 78.9118 63.5392 72.1305 64.6082L44.7717 69.4854C44.3347 69.5067 43.9196 69.6832 43.6012 69.9833C43.2828 70.2834 43.0819 70.6872 43.0347 71.1222C43.0882 71.5546 43.2911 71.9548 43.6082 72.2537C43.9254 72.5525 44.3369 72.7312 44.7717 72.7591L72.1305 77.4358C78.8116 78.605 84.1898 86.856 85.7598 91.9002L92.0734 127.577C92.2881 127.975 92.6063 128.307 92.9945 128.538C93.3826 128.77 93.8262 128.892 94.2781 128.892C94.7301 128.892 95.1737 128.77 95.5618 128.538C95.9499 128.307 96.2682 127.975 96.4829 127.577L102.796 91.7332Z" fill="white"/>
<path d="M143.885 69.4854L116.526 64.7752C109.845 63.6395 104.467 55.3884 102.897 50.3442L96.4828 14.6675C96.2682 14.2698 95.9499 13.9375 95.5618 13.706C95.1736 13.4744 94.7301 13.3521 94.2781 13.3521C93.8261 13.3521 93.3826 13.4744 92.9944 13.706C92.6063 13.9375 92.288 14.2698 92.0734 14.6675L90.0356 26.0587L96.1154 60.3992C97.6854 65.4433 102.997 73.7612 109.745 74.8302L120.234 76.634L143.617 72.592C144.056 72.5654 144.472 72.3879 144.795 72.0896C145.118 71.7912 145.327 71.3904 145.388 70.9552C145.314 70.5878 145.13 70.2512 144.862 69.9891C144.594 69.727 144.254 69.5515 143.885 69.4854Z" fill="white"/>
<path d="M102.796 91.7332C104.366 86.689 109.678 78.3711 116.426 77.2688L143.885 72.592C144.323 72.5654 144.739 72.3879 145.062 72.0896C145.385 71.7912 145.594 71.3904 145.655 70.9552C145.566 70.5479 145.343 70.1821 145.023 69.9159C144.702 69.6496 144.301 69.4981 143.885 69.4854L116.526 64.7752C109.845 63.6395 104.467 55.3884 102.897 50.3442L96.4829 14.6675C96.2682 14.2698 95.9499 13.9375 95.5618 13.706C95.1737 13.4744 94.7301 13.3521 94.2781 13.3521C93.8262 13.3521 93.3826 13.4744 92.9945 13.706C92.6063 13.9375 92.2881 14.2698 92.0734 14.6675L85.7598 50.1772C84.1898 55.2214 78.9118 63.5392 72.1305 64.6082L44.7717 69.4854C44.3347 69.5067 43.9196 69.6832 43.6012 69.9833C43.2828 70.2834 43.0819 70.6872 43.0347 71.1222C43.0882 71.5546 43.2911 71.9548 43.6082 72.2537C43.9254 72.5525 44.3369 72.7312 44.7717 72.7591L72.1305 77.4358C78.8116 78.605 84.1898 86.856 85.7598 91.9002L92.0734 127.577C92.2881 127.975 92.6063 128.307 92.9945 128.538C93.3826 128.77 93.8262 128.892 94.2781 128.892C94.7301 128.892 95.1737 128.77 95.5618 128.538C95.9499 128.307 96.2682 127.975 96.4829 127.577L102.796 91.7332Z" stroke="black" stroke-width="0.5" stroke-linecap="round" stroke-linejoin="round"/>
<path d="M39.0593 43.6631C39.9279 40.9239 42.8341 36.4142 46.5421 35.7795L61.541 33.2407C62.1089 33.2407 62.5097 32.7731 62.5097 32.3388C62.5097 31.9045 62.1089 31.5371 61.541 31.4369L46.5421 28.8981C44.7591 28.2814 43.1495 27.247 41.8477 25.8813C40.546 24.5157 39.5899 22.8584 39.0593 21.0479L35.7188 1.70629C35.6159 1.47908 35.4448 1.28951 35.2294 1.16382C35.0139 1.03813 34.7647 0.982555 34.5162 1.00479C34.2685 0.987371 34.0213 1.04498 33.8068 1.17011C33.5923 1.29524 33.4204 1.48209 33.3137 1.70629L29.9731 21.0479C29.4476 22.8609 28.4933 24.5208 27.1909 25.8872C25.8884 27.2535 24.2762 28.2863 22.4904 28.8981L7.5249 31.4369C6.95701 31.4369 6.55615 31.9045 6.55615 32.3388C6.55615 32.7731 6.95701 33.1405 7.5249 33.2407L22.4904 35.7795C26.2318 36.4142 29.1714 40.9239 29.9731 43.6631L33.3137 63.0715C33.4113 63.305 33.5801 63.5017 33.796 63.6336C34.0119 63.7655 34.264 63.826 34.5162 63.8064C34.7694 63.8314 35.0237 63.7732 35.2407 63.6405C35.4577 63.5079 35.6256 63.3081 35.7188 63.0715L39.0593 43.6631Z" fill="white" stroke="black" stroke-width="0.5" stroke-linecap="round" stroke-linejoin="round"/>
<path d="M23.6263 105.663C23.992 104.429 24.6508 103.301 25.5465 102.376C26.4423 101.451 27.5485 100.757 28.7707 100.352L39.0595 98.648C39.1526 98.6698 39.2495 98.6703 39.3428 98.6494C39.4361 98.6285 39.5235 98.5868 39.5985 98.5273C39.6734 98.4679 39.734 98.3923 39.7756 98.3062C39.8172 98.2201 39.8388 98.1257 39.8388 98.03C39.8388 97.9344 39.8172 97.84 39.7756 97.7538C39.734 97.6677 39.6734 97.5921 39.5985 97.5327C39.5235 97.4733 39.4361 97.4315 39.3428 97.4106C39.2495 97.3897 39.1526 97.3902 39.0595 97.412L28.7707 95.7084C27.5512 95.2985 26.4477 94.6023 25.5526 93.6782C24.6576 92.7541 23.997 91.6289 23.6263 90.3969L21.2545 77.3689C21.169 77.2235 21.047 77.1028 20.9005 77.019C20.754 76.9352 20.5882 76.8911 20.4194 76.8911C20.2506 76.8911 20.0848 76.9352 19.9383 77.019C19.7919 77.1028 19.6698 77.2235 19.5843 77.3689L17.2125 90.3969C16.8426 91.624 16.1863 92.7456 15.2976 93.6691C14.409 94.5926 13.3135 95.2916 12.1015 95.7084L1.77935 97.412C1.68622 97.3902 1.58936 97.3897 1.49603 97.4106C1.40269 97.4315 1.31529 97.4733 1.24034 97.5327C1.1654 97.5921 1.10485 97.6677 1.06324 97.7538C1.02162 97.84 1 97.9344 1 98.03C1 98.1257 1.02162 98.2201 1.06324 98.3062C1.10485 98.3923 1.1654 98.4679 1.24034 98.5273C1.31529 98.5868 1.40269 98.6285 1.49603 98.6494C1.58936 98.6703 1.68622 98.6698 1.77935 98.648L12.0681 100.352C13.2903 100.757 14.3965 101.451 15.2923 102.376C16.1881 103.301 16.8469 104.429 17.2125 105.663L19.5843 118.758C19.6698 118.903 19.7919 119.024 19.9383 119.108C20.0848 119.192 20.2506 119.236 20.4194 119.236C20.5882 119.236 20.754 119.192 20.9005 119.108C21.047 119.024 21.169 118.903 21.2545 118.758L23.6263 105.663Z" fill="white" stroke="black" stroke-width="0.5" stroke-linecap="round" stroke-linejoin="round"/>
</svg>
